<?xml version="1.0" encoding="utf-8"?><!-- Uploaded to: SVG Repo, www.svgrepo.com, Generator: SVG Repo Mixer Tools -->
<svg width="800px" height="800px" viewBox="0 0 400 400" fill="none" xmlns="http://www.w3.org/2000/svg">
<path d="M264.455 159.971C243.164 159.648 222.136 158.212 200.818 158.212" stroke="#000000" stroke-opacity="0.9" stroke-width="16" stroke-linecap="round" stroke-linejoin="round"/>
<path d="M206.5 152.286C211.007 130.076 213.243 107.405 219.668 85.447C220.056 84.1107 232.074 46.8312 235.871 50.2174C240.857 54.6635 253.091 141.379 253.091 154.545" stroke="#000000" stroke-opacity="0.9" stroke-width="16" stroke-linecap="round" stroke-linejoin="round"/>
<path d="M224.761 193.932C271.628 179.069 229.052 258.083 217.297 220.377C214.665 211.94 215.041 201.966 218.696 194.929" stroke="#000000" stroke-opacity="0.9" stroke-width="16" stroke-linecap="round" stroke-linejoin="round"/>
<path d="M253.857 227.509C267.23 240.956 284.399 253.088 305.363 263.908C304.932 270.345 303.505 276.229 301.082 281.562C297.71 288.98 297.205 303.638 290.473 309.071C285.485 313.095 259.891 256.887 259.163 257.621C247.663 269.221 269.064 318.138 262.699 330.973C260.266 335.889 246.18 335.193 231.028 335.193C215.876 335.193 200.089 333.586 200.577 330.973C208.948 286.107 213.302 268.715 208.948 251.161C204.919 234.897 165.211 235.155 161.69 224.51C159.229 217.068 164.553 202.446 165.226 194.965C165.82 188.377 167.592 183.238 170.541 179.545C183.287 193.351 193.299 203.924 200.577 211.264" stroke="#000000" stroke-opacity="0.9" stroke-width="16" stroke-linecap="round" stroke-linejoin="round"/>
<path d="M157.636 186.184C155.592 184.106 152.365 184.106 149.682 184.425" stroke="#000000" stroke-opacity="0.9" stroke-width="16" stroke-linecap="round" stroke-linejoin="round"/>
<path d="M114.139 139.087C104.782 143.176 99.0882 123.744 96.1694 115.627C85.3534 85.5412 117.901 73.5718 129.54 104.404C151.733 163.2 162.31 227.708 180.364 287.5" stroke="#000000" stroke-opacity="0.9" stroke-width="16" stroke-linecap="round" stroke-linejoin="round"/>
<path d="M245.63 340.909C243.832 349.855 246.923 350 255.364 350" stroke="#000000" stroke-opacity="0.9" stroke-width="16" stroke-linecap="round" stroke-linejoin="round"/>
<path d="M223.372 339.773C224.397 347.877 220.852 349.275 213.318 350" stroke="#000000" stroke-opacity="0.9" stroke-width="16" stroke-linecap="round" stroke-linejoin="round"/>
<path d="M255.363 164.773C254.283 177.029 254.696 190.734 247.408 200" stroke="#000000" stroke-opacity="0.9" stroke-width="16" stroke-linecap="round" stroke-linejoin="round"/>
<path d="M209.925 164.773C209.651 174.28 212.749 192.552 214.454 196.591" stroke="#000000" stroke-opacity="0.9" stroke-width="16" stroke-linecap="round" stroke-linejoin="round"/>
</svg>